<svg version="1.1" id="Ebene_1" xmlns="http://www.w3.org/2000/svg" x="0" y="0" viewBox="0 0 208 234" xml:space="preserve">
  <style>
    .st0{fill:none}.st1{fill:#fff}.st3{opacity:.2;fill:#173456;enable-background:new}.st4{fill:#00bde7}.st5{opacity:.3;fill:#fff;enable-background:new}.st10{opacity:.4;fill:#002d4f}
  </style>
  <path class="st0" d="M0 0h208v234H0z"/>
  <path class="st1" d="M160.7 205.9H68.3c-2 0-3.6-1.6-3.6-3.6V84.2c0-1.9 1.6-3.6 3.6-3.6h92.4c2 0 3.6 1.6 3.6 3.6v118.1c0 2-1.6 3.6-3.6 3.6z"/>
  <linearGradient id="SVGID_1_" gradientUnits="userSpaceOnUse" x1="114.5" y1="-419.9" x2="114.5" y2="-294.6" gradientTransform="matrix(1 0 0 -1 0 -214)">
    <stop offset="0" stop-color="#004574"/>
    <stop offset=".862" stop-color="#004574" stop-opacity="0"/>
  </linearGradient>
  <path d="M160.7 205.9H68.3c-2 0-3.6-1.6-3.6-3.6V84.2c0-1.9 1.6-3.6 3.6-3.6h92.4c2 0 3.6 1.6 3.6 3.6v118.1c0 2-1.6 3.6-3.6 3.6z" opacity=".05" fill="url(#SVGID_1_)"/>
  <path class="st3" d="M160.7 204.1H68.3c-2 0-3.6-1.6-3.6-3.6v1.9c0 1.9 1.6 3.6 3.6 3.6h92.4c2 0 3.6-1.6 3.6-3.6v-1.9c0 2-1.6 3.6-3.6 3.6z"/>
  <path class="st4" d="M160.7 80.7H68.3c-2 0-3.6 1.6-3.6 3.6v29.2h99.6V84.2c0-2-1.6-3.5-3.6-3.5z"/>
  <path class="st5" d="M160.7 80.7H68.3c-2 0-3.6 1.6-3.6 3.6v1.2c0-1.9 1.6-3.6 3.6-3.6h92.4c2 0 3.6 1.6 3.6 3.6v-1.2c0-2.1-1.6-3.6-3.6-3.6z"/>
  <path class="st1" d="M139.7 199.4H47.3c-2 0-3.6-1.6-3.6-3.6V77.7c0-1.9 1.6-3.6 3.6-3.6h92.4c2 0 3.6 1.6 3.6 3.6v118.1c0 2-1.6 3.6-3.6 3.6z"/>
  <linearGradient id="SVGID_2_" gradientUnits="userSpaceOnUse" x1="93.5" y1="-413.4" x2="93.5" y2="-288.1" gradientTransform="matrix(1 0 0 -1 0 -214)">
    <stop offset="0" stop-color="#004574"/>
    <stop offset=".862" stop-color="#004574" stop-opacity="0"/>
  </linearGradient>
  <path d="M139.7 199.4H47.3c-2 0-3.6-1.6-3.6-3.6V77.7c0-1.9 1.6-3.6 3.6-3.6h92.4c2 0 3.6 1.6 3.6 3.6v118.1c0 2-1.6 3.6-3.6 3.6z" opacity=".05" fill="url(#SVGID_2_)"/>
  <path class="st3" d="M139.7 197.6H47.3c-2 0-3.6-1.6-3.6-3.6v1.9c0 1.9 1.6 3.6 3.6 3.6h92.4c2 0 3.6-1.6 3.6-3.6V194c0 2-1.6 3.6-3.6 3.6z"/>
  <path class="st4" d="M139.7 74.2H47.3c-2 0-3.6 1.6-3.6 3.6V107h99.6V77.7c0-2-1.6-3.5-3.6-3.5z"/>
  <path class="st5" d="M139.7 74.2H47.3c-2 0-3.6 1.6-3.6 3.6V79c0-1.9 1.6-3.6 3.6-3.6h92.4c2 0 3.6 1.6 3.6 3.6v-1.2c0-2.1-1.6-3.6-3.6-3.6z"/>
  <path class="st1" d="M153.5 191.9H55.4c-2.1 0-3.9-1.7-3.9-3.8V62.8c0-2.1 1.7-3.8 3.9-3.8h98.2c2.1 0 3.9 1.7 3.9 3.8v125.4c-.1 2.1-1.8 3.7-4 3.7z"/>
  <linearGradient id="SVGID_3_" gradientUnits="userSpaceOnUse" x1="104.5" y1="-405.9" x2="104.5" y2="-273" gradientTransform="matrix(1 0 0 -1 0 -214)">
    <stop offset="0" stop-color="#004574"/>
    <stop offset=".496" stop-color="#004574" stop-opacity="0"/>
  </linearGradient>
  <path d="M153.5 191.9H55.4c-2.1 0-3.9-1.7-3.9-3.8V62.8c0-2.1 1.7-3.8 3.9-3.8h98.2c2.1 0 3.9 1.7 3.9 3.8v125.4c-.1 2.1-1.8 3.7-4 3.7z" opacity=".1" fill="url(#SVGID_3_)"/>
  <path class="st3" d="M153.5 190H55.4c-2.1 0-3.9-1.7-3.9-3.8v2c0 2.1 1.7 3.8 3.9 3.8h98.2c2.1 0 3.9-1.7 3.9-3.8v-2c-.1 2.1-1.8 3.8-4 3.8z"/>
  <path class="st4" d="M153.5 59H55.4c-2.1 0-3.9 1.7-3.9 3.8v31.1h105.9V62.8c0-2.1-1.7-3.8-3.9-3.8z"/>
  <path class="st5" d="M153.5 59H55.4c-2.1 0-3.9 1.7-3.9 3.8V64c0-2.1 1.7-3.8 3.9-3.8h98.2c2.1 0 3.9 1.7 3.9 3.8v-1.2c-.1-2.1-1.8-3.8-4-3.8z"/>
  <ellipse cx="104.5" cy="57.4" rx="30" ry="29.4" fill="#1fbbe4"/>
  <linearGradient id="SVGID_4_" gradientUnits="userSpaceOnUse" x1="104.56" y1="149.106" x2="104.56" y2="207.827" gradientTransform="matrix(1 0 0 -1 0 236)">
    <stop offset="0" stop-color="#2580c3"/>
    <stop offset="1" stop-color="#2580c3" stop-opacity="0"/>
  </linearGradient>
  <ellipse cx="104.6" cy="57.5" rx="30" ry="29.4" fill="url(#SVGID_4_)"/>
  <path class="st1" d="M104.5 28c16.5 0 30 13.1 30 29.4s-13.4 29.4-30 29.4-30-13.1-30-29.4S87.9 28 104.5 28m0-1.7c-17.5 0-31.8 14-31.8 31.2s14.2 31.2 31.8 31.2 31.8-14 31.8-31.2-14.3-31.2-31.8-31.2z"/>
  <path class="st0" d="M74.8 27.5h60v60h-60z"/>
  <path class="st0" d="M74.5 26.9h60v60h-60z"/>
  <path class="st1" d="M121.2 57.5c0-1.6-.2-3.1-.6-4.5l2.2-1.9c.5-.4.6-1.1.3-1.7l-2.2-3.9c-.3-.6-1-.8-1.6-.6l-2.7 1c-2.1-2.2-4.8-3.7-7.8-4.5l-.5-2.9c-.1-.7-.7-1.1-1.3-1.1h-4.5c-.7 0-1.2.5-1.3 1.1l-.5 2.9c-3 .8-5.7 2.3-7.8 4.5l-2.7-1c-.6-.2-1.3 0-1.6.6L86 49.4c-.3.6-.2 1.3.3 1.7l2.2 1.9c-.4 1.4-.6 2.9-.6 4.5s.2 3.1.6 4.5l-2.2 1.9c-.5.4-.6 1.1-.3 1.7l2.2 3.9c.3.6 1 .8 1.6.6l2.7-1c2.1 2.2 4.8 3.7 7.8 4.5l.5 2.9c.1.7.7 1.1 1.3 1.1h4.5c.7 0 1.2-.5 1.3-1.1l.5-2.9c3-.8 5.7-2.3 7.8-4.5l2.7 1c.6.2 1.3 0 1.6-.6l2.2-3.9c.3-.6.2-1.3-.3-1.7l-2.2-1.9c.7-1.4 1-2.9 1-4.5zm-13.8 12c-8.9 2-16.7-5.8-14.7-14.7 1-4.5 4.6-8.1 9.1-9.1 8.9-2 16.7 5.8 14.7 14.7-1 4.5-4.7 8.2-9.1 9.1z"/>
  <path class="st10" d="M94.2 113.9h20.9v1.7H94.2zM94.2 118h20.9v1.7H94.2zM94.2 122.1h20.9v1.7H94.2z"/>
  <path d="M142.5 168.5c.1-4.5-3.3-8.2-7.7-8.7v-4h8.8v-9.5h-8.8c-.1-5.6-4.6-10.1-10.2-10.1h-10.3c-4.3 0-7.8-3.4-8.1-7.6h15.4V109H88V128.6h15.1c-.3 4.2-3.8 7.6-8.1 7.6H84.7c-5.6 0-10.1 4.5-10.2 10.1h-8.8v9.5h8.8v4c-4.4.5-7.8 4.2-7.8 8.7h.1c-1.6.5-2.7 1.9-2.7 3.6 0 2.1 1.7 3.8 3.8 3.8s3.8-1.7 3.8-3.8c0-1.8-1.2-3.2-2.8-3.7a6.7 6.7 0 0113.4 0c-1.6.4-2.8 1.9-2.8 3.7 0 2.1 1.7 3.8 3.8 3.8 2.1 0 3.8-1.7 3.8-3.8 0-1.7-1.2-3.2-2.7-3.6h.1c0-4.5-3.4-8.2-7.8-8.7v-4h8.8v-9.5h-8.8c.1-4.4 3.7-8 8.1-8h10.3c3.7 0 7-2 8.8-5.1v13.1h-8.8v9.5h8.8v4c-4.4.5-7.8 4.2-7.8 8.7h.1c-1.6.5-2.7 1.9-2.7 3.6 0 2.1 1.7 3.8 3.8 3.8s3.8-1.7 3.8-3.8c0-1.8-1.2-3.2-2.8-3.7a6.7 6.7 0 0113.4 0c-1.6.4-2.8 1.9-2.8 3.7 0 2.1 1.7 3.8 3.8 3.8s3.8-1.7 3.8-3.8c0-1.7-1.2-3.2-2.7-3.6h.1c0-4.5-3.4-8.2-7.8-8.7v-4h8.8v-9.5h-8.8v-12.4c1.8 2.7 4.9 4.4 8.4 4.4h10.3c4.4 0 8.1 3.6 8.1 8h-8.8v9.5h8.8v4c-4.4.5-7.8 4.2-7.8 8.7h.1c-1.6.5-2.7 1.9-2.7 3.6 0 2.1 1.7 3.8 3.8 3.8s3.8-1.7 3.8-3.8c0-1.8-1.2-3.2-2.8-3.7a6.7 6.7 0 0113.4 0c-1.6.4-2.8 1.9-2.8 3.7 0 2.1 1.7 3.8 3.8 3.8s3.8-1.7 3.8-3.8c-.3-1.7-1.5-3.2-3-3.6zm-73 3.6c0 .9-.8 1.7-1.7 1.7-1 0-1.7-.8-1.7-1.7 0-1 .8-1.7 1.7-1.7s1.7.7 1.7 1.7zm15.4 0c0 .9-.8 1.7-1.7 1.7-.9 0-1.7-.8-1.7-1.7 0-1 .8-1.7 1.7-1.7 1 0 1.7.7 1.7 1.7zm-1.5-18.3H67.6v-5.7h15.9l-.1 5.7zm15.4 18.3c0 .9-.8 1.7-1.7 1.7-1 0-1.7-.8-1.7-1.7 0-1 .8-1.7 1.7-1.7.9 0 1.7.7 1.7 1.7zm15.4 0c0 .9-.8 1.7-1.7 1.7-.9 0-1.7-.8-1.7-1.7 0-1 .8-1.7 1.7-1.7 1 0 1.7.7 1.7 1.7zm-1.5-18.3H96.9v-5.7h15.9v5.7h-.1zm-22.8-43h29.7v15.8H89.9v-15.8zm35.9 37.3h15.9v5.7h-15.9v-5.7zm1.9 24c0 .9-.8 1.7-1.7 1.7-.9 0-1.7-.8-1.7-1.7 0-1 .8-1.7 1.7-1.7.9 0 1.7.7 1.7 1.7zm13.7 1.7c-1 0-1.7-.8-1.7-1.7 0-1 .8-1.7 1.7-1.7s1.7.8 1.7 1.7c0 .9-.7 1.7-1.7 1.7z" opacity=".4" fill="#002d4f"/>
</svg>